<svg xmlns="http://www.w3.org/2000/svg" height="40" viewBox="0 -960 960 960" width="40"><path d="M480-64.173q-86.536 0-162.363-32.63-75.826-32.631-132.159-89.153-56.334-56.522-88.82-132.681-32.485-76.16-32.485-162.696 0-86.682 32.486-162.291 32.485-75.608 88.819-131.753 56.333-56.145 132.159-88.486Q393.464-896.204 480-896.204q86.681 0 162.435 32.341t132.087 88.486q56.334 56.145 89.008 131.753 32.674 75.609 32.674 162.291 0 86.536-32.674 162.696-32.674 76.159-89.008 132.681-56.333 56.522-132.087 89.152Q566.681-64.174 480-64.174Zm-.754-86.914q30.116-35.246 51.928-78.775 21.812-43.529 36.189-100.486H393.116q12.956 54.29 34.485 98.819t51.645 80.442Zm-89.26-13.333q-23.421-35.203-38.979-76.37t-26.558-89.558H187.753q33.681 63.247 80.856 102.015 47.174 38.768 121.377 63.913Zm179.376-.667q65.536-20.768 117.899-63.391 52.362-42.624 84.421-101.87H636.029q-11.667 47.725-27.457 88.892-15.79 41.166-39.21 76.369Zm-405.71-230.232h148.131q-3-24.667-3.833-45.123-.834-20.457-.834-40.891 0-23.667 1.167-42.508 1.167-18.84 4.167-41.507H163.652q-6.333 22.478-8.833 41.08-2.5 18.601-2.5 42.935 0 23.768 2.5 43.652t8.833 42.362Zm216.13 0h200.914q3.29-27.333 4.08-46.456.789-19.124.789-39.558 0-20.334-.789-38.508-.79-18.173-4.08-45.507H379.782q-3.666 27.334-4.833 45.507-1.167 18.174-1.167 38.508 0 20.434 1.167 39.558 1.167 19.123 4.833 46.456Zm267.58 0h148.232q5.957-22.478 8.645-42.362 2.689-19.884 2.689-43.652 0-24.334-2.689-42.935-2.688-18.602-8.645-41.08H648.029q2.058 30.377 3.13 48.363 1.073 17.985 1.073 35.652 0 21.101-1.406 40.224-1.406 19.123-3.464 45.79Zm-12-235.565h136.32q-30.725-61.536-83.088-104.065-52.362-42.53-119.899-60.631 23.421 34.913 39.211 75.131 15.789 40.217 27.456 89.565Zm-242.246 0h174.913q-10.768-48.869-34.435-94.681-23.666-45.812-54.348-82.015-28.116 29.246-48.645 71.014-20.529 41.769-37.485 105.682Zm-205.363 0h137.363q10.333-47.348 25.225-87.232 14.891-39.884 38.978-76.797-67.913 18.101-118.899 59.775-50.986 41.674-82.667 104.254Z"/></svg>