<svg xmlns="http://www.w3.org/2000/svg" height="40" viewBox="0 -960 960 960" width="40"><path d="M149.058-441.442v92.384h661.884v-92.384H149.058Zm0-445.413h661.884q31.56 0 53.736 22.177 22.177 22.176 22.177 53.736v461.884q0 31.494-22.177 53.624-22.176 22.13-53.736 22.13H635.927v202.391L480-149.304 324.232-70.913v-202.391H149.058q-31.494 0-53.624-22.13-22.13-22.13-22.13-53.624v-461.884q0-31.56 22.13-53.736 22.13-22.177 53.624-22.177Zm0 327.275h661.884v-251.362H149.058v251.362Zm0 210.522v-461.884 461.884Z"/></svg>